<?xml version="1.0" encoding="utf-8"?>
<!-- Generator: Adobe Illustrator 22.0.1, SVG Export Plug-In . SVG Version: 6.00 Build 0)  -->
<svg version="1.1" id="Layer_1" xmlns="http://www.w3.org/2000/svg" xmlns:xlink="http://www.w3.org/1999/xlink" x="0px" y="0px"
	 viewBox="0 0 360 144" style="enable-background:new 0 0 360 144;" xml:space="preserve">
<style type="text/css">
	.st0{stroke:#010101;stroke-width:0.75;stroke-miterlimit:10;}
</style>
<g>
	<path class="st0" d="M214.2,47.1c-0.5,2.7-0.9,5.2-1.3,7.7c-1.2,6.9-2.3,13.7-3.5,20.6c-0.8,4.5-1.5,8.9-2.2,13.4
		c-0.1,0.6-0.3,0.8-0.9,0.8c-0.7,0-0.7-0.5-0.8-1c-0.4-2.1-0.7-4.2-1-6.2c-1.1-6.5-2.2-13-3.2-19.6c-0.8-5.1-1.7-10.1-2.5-15.2
		c0-0.1-0.1-0.2-0.1-0.4c-0.4,0.5-0.2,0.9-0.2,1.4c0,13.1,0,26.2,0,39.3c0,0.3,0,0.6,0,1c0.1,0.7-0.2,0.9-0.9,0.9
		c-0.8,0-0.7-0.4-0.7-0.9c0-0.2,0-0.5,0-0.7c0-16.7,0-33.5,0-50.2c0-0.3,0-0.6,0-0.8c0-0.4,0-0.7,0.5-0.7c0.5,0,1-0.1,1.1,0.6
		c0.3,1.6,0.5,3.2,0.8,4.8c1.5,9,3,17.9,4.5,26.9c0.8,5.1,1.7,10.2,2.6,15.5c0.5-1.4,0.6-2.7,0.8-4c2.1-12.2,4.1-24.4,6.2-36.6
		c0.4-2.1,0.7-4.2,1-6.4c0.1-0.4,0.1-0.9,0.7-0.9c0.5,0,0.9,0.1,0.8,0.7c0,0.3,0,0.6,0,0.8c0,16.8,0,33.6,0,50.3c0,0.3,0,0.6,0,1
		c0,0.6-0.3,0.6-0.8,0.6c-0.4,0-0.7-0.1-0.7-0.6c0-0.4,0-0.7,0-1.1c0-13.2,0-26.3,0-39.5C214.4,48.2,214.5,47.7,214.2,47.1z"/>
	<path class="st0" d="M248.8,43.6c0,4.1,0,8,0,11.9c0,10.9,0,21.8,0,32.6c0,0.3,0,0.6,0,1c0,0.6-0.3,0.6-0.8,0.6
		c-0.5,0-0.8-0.1-0.7-0.7c0-0.2,0-0.5,0-0.7c0-16.8,0-33.6,0-50.5c0-0.2,0-0.4,0-0.6c0-0.4-0.1-0.8,0.5-0.8c0.5,0,0.9,0,1.1,0.6
		c0.5,2.1,1,4.1,1.5,6.1c3.1,12.6,6.2,25.3,9.4,37.9c0,0.2,0.1,0.3,0.1,0.5c0.1,0.2,0,0.6,0.3,0.5c0.2,0,0.1-0.3,0.1-0.5
		c0-0.3,0-0.6,0-1c0-14.2,0-28.3,0-42.5c0-0.3,0-0.6,0-1c0-0.6,0.2-0.8,0.8-0.8c0.5,0,0.7,0.2,0.7,0.7c0,0.3,0,0.6,0,0.8
		c0,16.7,0,33.5,0,50.2c0,0.2,0,0.4,0,0.6c0,0.4,0.1,0.9-0.6,0.9c-0.6,0-0.8-0.2-1-0.8c-0.9-3.9-1.9-7.7-2.9-11.6
		c-2.7-10.9-5.4-21.8-8.1-32.7C249.1,44.4,249.1,44.1,248.8,43.6z"/>
	<path class="st0" d="M113.2,43.3c-0.4,3.4-0.8,6.7-1.2,10c-0.5,4.1-1,8.3-1.6,12.4c-0.1,0.7,0,0.9,0.7,0.9c0.8,0,1.7,0,2.5,0
		c0.4,0,0.8,0.1,0.8,0.6c0,0.5-0.3,0.7-0.7,0.7c-1,0-1.9,0-2.9,0c-0.5,0-0.8,0.2-0.8,0.7c-0.4,3.4-0.8,6.9-1.2,10.3
		c-0.4,3.3-0.8,6.6-1.2,10c-0.1,0.8-0.6,0.7-1.1,0.7c-0.7,0-0.6-0.5-0.6-0.9c0.4-3.4,0.9-6.9,1.3-10.3c0.6-4.8,1.2-9.6,1.8-14.5
		c0.7-5.5,1.4-11.1,2.1-16.6c0.4-3.4,0.9-6.8,1.2-10.2c0.1-0.7,0.3-0.9,1-0.8c0.6,0,0.7,0.4,0.7,0.9c0.2,2,0.5,4,0.7,5.9
		c0.7,5.7,1.4,11.4,2.1,17.1c0.7,5.5,1.3,11.1,2,16.6c0.5,4,1,8,1.5,12c0.1,0.8-0.2,1-0.9,0.8c-0.5-0.1-0.5-0.5-0.5-0.8
		c-0.4-3.4-0.8-6.8-1.2-10.2c-0.3-2.1-0.5-4.2-0.8-6.3c-0.2-2.1-0.4-4.1-0.7-6.2c-0.8-6.7-1.7-13.3-2.5-20
		C113.5,45.3,113.5,44.4,113.2,43.3z"/>
	<path class="st0" d="M128.8,75.7c0-4.2,0-8.4,0-12.7c0-1.2,0-1.2,1.2-1.2c1.8,0,3.6,0,5.4,0c1.6,0,3.1-0.5,4.3-1.6
		c1-0.9,1.5-1.9,1.5-3.2c0-4.8,0-9.6,0-14.5c0-2.6-2.3-4.7-5.3-4.9c-2-0.1-4.1-0.1-6.1-0.1c-0.3,0-0.6,0-0.8-0.1
		c-0.3-0.1-0.2-0.5-0.2-0.8c0-0.4,0.3-0.4,0.6-0.4c2.4,0.1,4.8-0.2,7.2,0.1c3.9,0.5,6.2,3.2,6.2,7.1c0,4.3,0,8.5,0,12.8
		c0,2.9-1.7,5.3-4.5,6.2c-0.8,0.2-0.8,0.5-0.6,1.2c2.1,6.1,4.1,12.1,6.2,18.2c0.8,2.2,1.5,4.4,2.2,6.7c0.1,0.3,0.6,0.8-0.2,1
		c-0.9,0.3-1,0.3-1.3-0.6c-1.2-3.5-2.3-6.9-3.5-10.4c-1.6-4.9-3.3-9.7-4.9-14.6c-0.2-0.7-0.5-1-1.3-0.9c-1.2,0.1-2.4,0-3.6,0
		c-1,0-1,0-1,1.1c0,5,0,10,0,14.9c0,3.2,0,6.4,0,9.6c0,0.5,0.1,1-0.7,0.9c-0.6,0-0.9-0.1-0.9-0.8c0-2.2,0-4.3,0-6.5
		C128.8,80.1,128.8,77.9,128.8,75.7z"/>
	<path class="st0" d="M85.9,86.3c0-5.4,0-10.8,0-16.3c0-1.3,0-1.3,1.3-1.3c1.8,0,3.7,0,5.5-0.1c2.9-0.1,5.2-2.4,5.6-5.3
		c0.1-0.5,0.1-1,0.1-1.5c0-5.7,0-11.3,0-17c0-2.2-0.6-4.1-2.3-5.5c-1-0.9-2.3-1.3-3.6-1.3c-1.9,0-3.8,0-5.7,0
		c-0.5,0-0.8-0.1-0.8-0.7c0-0.6,0.1-0.9,0.8-0.9c2.1,0,4.2-0.1,6.3,0c3.7,0.2,6.8,3.6,6.8,7.5c0.1,6.3,0.1,12.5,0,18.8
		c0,3.9-3.3,7.9-7.7,7.6c-1.3-0.1-2.6,0-3.9,0c-0.5,0-0.8,0.1-0.7,0.7c0,0.3,0,0.6,0,0.8c0,10.1,0,20.2,0,30.4c0,0.2,0,0.5,0,0.7
		c0,0.5,0.2,1.1-0.7,1.1c-1,0-0.8-0.6-0.8-1.2c0-5.1,0-10.3,0-15.4C85.9,87,85.9,86.6,85.9,86.3z"/>
	<path class="st0" d="M152.2,63.1c0-6.6,0.1-13.2,0-19.7c-0.1-3.9,2.8-6.4,5.9-6.8c2.4-0.4,4.6,0,6.5,1.6c1.4,1.2,2.3,2.6,2.2,4.6
		c0,1,0,2.1,0,3.1c0,0.5,0.1,1-0.7,1c-0.8,0-0.8-0.4-0.8-1c0-0.8-0.1-1.7,0-2.5c0.3-3.1-2.2-5.4-5.3-5.6c-1.9-0.1-3.5,0.4-4.9,1.8
		c-0.8,0.8-1.3,1.8-1.3,3c0,0.4,0,0.7,0,1.1c0,13,0,26,0,39c0,2.5,1,4.3,3.3,5.3c2.4,1,4.7,0.7,6.7-1.1c1.1-0.9,1.6-2.1,1.6-3.6
		c0-1.1,0-2.2,0-3.2c0-0.5,0.1-0.7,0.7-0.7c0.5,0,0.9,0,0.8,0.7c0,1.4,0,2.9,0,4.3c-0.1,1.3-0.7,2.4-1.6,3.3
		c-2.8,2.8-8.1,2.9-11,0.2c-1.4-1.2-1.9-2.8-1.9-4.6C152.2,76.5,152.2,69.8,152.2,63.1z"/>
	<path class="st0" d="M275.1,71.3c0-10.4,0-20.8,0-31.2c0-0.3,0-0.6,0-1c0.1-0.6-0.2-0.7-0.8-0.7c-1.6,0-3.1,0-4.7,0
		c-0.6,0-0.8-0.2-0.8-0.8c0-0.7,0.2-0.9,0.9-0.9c2.4,0,4.7,0,7.1,0c1.8,0,3.5,0,5.3,0c0.7,0,0.8,0.3,0.8,0.8c0,0.6-0.1,0.9-0.8,0.9
		c-1.5,0-2.9,0-4.4,0c-0.7,0-1.1,0.1-1,0.9c0,0.3,0,0.6,0,1c0,20.7,0,41.4,0,62.2c0,0.3,0,0.6,0,0.8c0,0.6,0,1.1-0.8,1.1
		c-0.9,0-0.8-0.6-0.8-1.1C275.1,92.6,275.1,81.9,275.1,71.3z"/>
	<path class="st0" d="M226.3,63c0-8.3,0-16.6,0-24.9c0-0.3,0-0.6,0-0.8c-0.1-0.6,0.2-0.9,0.9-0.9c0.9,0,1.8,0,2.6,0
		c3.1,0,6.3,0,9.4,0c0.3,0,0.8-0.2,1,0.4c0.1,0.6-0.1,0.9-0.9,0.9c-2.3,0-4.5,0-6.8,0c-1.2,0-2.5,0-3.7,0c-0.6,0-0.9,0.2-0.9,0.9
		c0,0.8,0,1.7,0,2.5c0,6.5,0,13.1,0,19.6c0,1.2,0,1.2,1.2,1.2c2.7,0,5.5,0,8.2,0c0.3,0,0.7-0.1,0.9,0.2c0.2,0.2,0.2,0.5,0.1,0.8
		c-0.1,0.3-0.5,0.3-0.7,0.3c-2.8,0-5.6,0-8.4,0c-1.3,0-1.3,0-1.3,1.3c0,7.6,0,15.2,0,22.8c0,1.2,0,1.2,1.1,1.2c3.4,0,6.9,0,10.3,0
		c0.5,0,0.9,0,0.9,0.8c0,0.4-0.2,0.6-0.6,0.6c-0.2,0-0.3,0-0.5,0c-3.9,0-7.8,0-11.7,0c-1.1,0-1.1,0-1.1-1.2
		C226.3,80,226.3,71.5,226.3,63z"/>
	<path class="st0" d="M174.6,63c0-8.5,0-17,0-25.5c0-0.4-0.3-1.1,0.6-1.1c0.8,0,0.9,0,0.9,1.1c0,7.1,0,14.3,0,21.4c0,0.7,0,1.4,0,2
		c-0.1,0.7,0.2,1,1,0.9c2.5,0,4.9,0,7.4,0c0.3,0,0.6,0,0.8,0c0.4,0,0.5,0.3,0.5,0.7c0,0.3-0.1,0.5-0.5,0.5c-0.4,0-0.7,0-1.1,0
		c-2.2,0-4.5,0-6.7,0c-1.6,0-1.4-0.1-1.4,1.5c0,7.8,0,15.7,0,23.5c0,0.3,0,0.6,0,0.8c0.1,0.6-0.2,0.8-0.8,0.8
		c-0.6,0-0.7-0.2-0.7-0.8c0-3.3,0-6.7,0-10C174.6,73.6,174.6,68.3,174.6,63z"/>
	<path class="st0" d="M189.1,63.2c0,8.5,0,16.9,0,25.4c0,1.1-0.2,1.3-0.9,1.2c-0.3,0-0.5-0.2-0.5-0.5c0-0.3,0-0.6,0-1
		c0-6.9,0-13.7,0-20.6c0-1.6,0.1-3.1,0.1-4.7c-0.2-8.5-0.1-17-0.1-25.5c0-1.1,0.1-1.2,0.9-1.1c0.4,0,0.6,0.2,0.6,0.6
		c0,0.3,0,0.6,0,1C189.1,46.4,189.1,54.8,189.1,63.2z"/>
</g>
</svg>
